PathFileType	3	(X/Y/Z)	results
DataRate	CameraRate	NumFrames	NumMarkers	Units	OrigDataRate	OrigDataStartFrame	OrigNumFrames
30.0	30.0	4	85	mm	30.0	419	478
Frame#	Time	head			nose			neck			shoulder_r			elbow_r			wrist_r			shoulder_l			elbow_l			wrist_l			hip_r			knee_r			ankle_r			hip_l			knee_l			ankle_l			heel_r			heel_l			mtoe_r			ltoe_r			mtoe_l			ltoe_l			asis_l			asis_r			psi_r			psi_l			mhnd_r			lhnd_r			mhnd_l			lhnd_l			l_lat_knee			r_med_wrist			l_lat_ankle			r_med_ankle			r_lat_knee			xiphoid			l_med_ankle			r_med_knee			l_med_elbow			navel			r_lat_elbow			r_lat_wrist			l_med_wrist			l_lat_elbow			l_med_knee			r_med_elbow			r_lat_ankle			l_lat_wrist			chin			T10			r_eye			l_eye			l_ear			r_ear			spinal_cord_8			spinal_cord_12			spinal_cord_27			spinal_cord_33			up_arm_r_0			up_arm_r_5			up_arm_l_0			up_arm_l_5			front_torso_11			front_torso_7			front_torso_4			front_torso_1			front_torso_10			thigh_r_2			thigh_r_3			thigh_l_1			thigh_l_5			shank_l_0			shank_l_4			shank_r_1			shank_r_2			foot_r_1			foot_r_3			foot_r_5			foot_r_6			foot_r_7			foot_l_1			foot_l_7			foot_l_0			foot_l_4			foot_l_5			foot_l_6			
		X1	Y1	Z1	X2	Y2	Z2	X3	Y3	Z3	X4	Y4	Z4	X5	Y5	Z5	X6	Y6	Z6	X7	Y7	Z7	X8	Y8	Z8	X9	Y9	Z9	X10	Y10	Z10	X11	Y11	Z11	X12	Y12	Z12	X13	Y13	Z13	X14	Y14	Z14	X15	Y15	Z15	X16	Y16	Z16	X17	Y17	Z17	X18	Y18	Z18	X19	Y19	Z19	X20	Y20	Z20	X21	Y21	Z21	X22	Y22	Z22	X23	Y23	Z23	X24	Y24	Z24	X25	Y25	Z25	X26	Y26	Z26	X27	Y27	Z27	X28	Y28	Z28	X29	Y29	Z29	X30	Y30	Z30	X31	Y31	Z31	X32	Y32	Z32	X33	Y33	Z33	X34	Y34	Z34	X35	Y35	Z35	X36	Y36	Z36	X37	Y37	Z37	X38	Y38	Z38	X39	Y39	Z39	X40	Y40	Z40	X41	Y41	Z41	X42	Y42	Z42	X43	Y43	Z43	X44	Y44	Z44	X45	Y45	Z45	X46	Y46	Z46	X47	Y47	Z47	X48	Y48	Z48	X49	Y49	Z49	X50	Y50	Z50	X51	Y51	Z51	X52	Y52	Z52	X53	Y53	Z53	X54	Y54	Z54	X55	Y55	Z55	X56	Y56	Z56	X57	Y57	Z57	X58	Y58	Z58	X59	Y59	Z59	X60	Y60	Z60	X61	Y61	Z61	X62	Y62	Z62	X63	Y63	Z63	X64	Y64	Z64	X65	Y65	Z65	X66	Y66	Z66	X67	Y67	Z67	X68	Y68	Z68	X69	Y69	Z69	X70	Y70	Z70	X71	Y71	Z71	X72	Y72	Z72	X73	Y73	Z73	X74	Y74	Z74	X75	Y75	Z75	X76	Y76	Z76	X77	Y77	Z77	X78	Y78	Z78	X79	Y79	Z79	X80	Y80	Z80	X81	Y81	Z81	X82	Y82	Z82	X83	Y83	Z83	X84	Y84	Z84	X85	Y85	Z85	
419	13.966666666666667	-53.99493444490749	2068.331664643304	1947.1415206404045	-49.98545513407602	1884.3596753421316	1750.991000200947	2.2786866233260943	1672.893562879917	1904.7927306093527	160.58041611913873	1743.1693751023663	1790.0482972907946	163.6953968565466	1943.2689108702766	1551.128880688046	97.67778129223501	2158.0282469502804	1369.4757596568618	-115.30896722942718	1615.451048031254	2002.732636625578	-326.70521386057436	1503.4684524389634	1800.2560636815201	-240.24282431090492	1701.0318357424533	1591.5760327481275	109.21387033095989	1134.1051530014922	1778.8485344362496	189.83814539550949	651.8686624790378	1779.9681858747874	292.776726465516	166.43850593919345	1792.7703233877503	-58.12680284119624	1116.0345109386728	1883.2456091581005	-59.31030925783374	635.2181895077471	1969.1374088339583	-67.91749720428126	160.60423310662875	2052.737520571461	301.94560243060886	104.5235370373429	1806.610571714146	-65.92555936914849	91.36100815297142	2082.097546858548	212.6185367183678	53.955322744007674	1576.0620841134285	305.22289969158913	66.05243578910056	1611.7443461899122	-152.22038819421792	78.3669192929382	1848.9962461820132	-209.28388323612677	70.11879487924836	1939.916965208579	-126.51455584577256	1169.586265440047	1866.3806371196174	120.69058145312044	1193.4640992268587	1716.5739931305832	106.88656478672159	1221.4962444466155	1884.33102654379	20.424345197548426	1211.3856263415337	1931.4160800444004	112.32766681999898	2211.6732627515694	1321.6293291926597	59.62189653676332	2221.06987747093	1323.3168319076522	-238.2983200413463	1734.0322855123393	1522.8606340453546	-202.87575510809924	1766.735534029492	1545.9146305249822	-116.09927558351181	632.6491491796539	1997.602004600471	133.198865849451	2160.1883074540615	1376.8884749712986	-126.23700675977464	148.63728125256688	2086.245630956593	248.87546625924233	144.81388970471897	1794.672305524684	236.52076717360362	647.682550139852	1750.9409413748194	-37.61169594326525	1506.1858953907415	1779.4007617809682	-40.680469912978815	140.81362692963518	2025.0884254780228	141.8213753632887	637.1627240485286	1797.9327032141405	-298.73822862428403	1471.0391720983125	1805.0982710761664	-38.76550696840775	1272.9735672587033	1722.7162409444754	153.65901189644	1973.5643286158188	1586.5135900680832	64.62469347274221	2135.349429360709	1369.2730334615271	-278.0386369335674	1686.8678300133868	1580.9024970117239	-347.7525621866768	1540.249510675899	1822.1445822829949	-26.679528447265643	624.1657294823988	1916.9200563763486	173.7263759442435	1906.2875824803486	1529.6533783904324	350.3991841538066	154.12469889993054	1765.995421432568	-218.6400913554319	1711.0742417035967	1623.9391432471932	-29.51742471590107	1787.6894422892046	1754.0146879951276	61.82710029922306	1487.316977241806	1968.0694386389882	-15.875195632655679	1930.805959533276	1753.8893142696777	-100.41575496068367	1913.3229299359134	1766.9447539142457	-139.43155242903575	1870.2153963667124	1899.7823256273218	71.5016716991928	1909.1883023988876	1869.6889554076201	24.618336163654746	1728.6946381828252	1963.3472669450857	55.117311955061936	1594.5022601415847	1989.3989762235074	72.47020889993189	1328.7004741819217	1916.0892711131514	55.467002998000126	1479.0170268495951	1953.782808232576	107.33958079153888	1846.6932191712476	1675.2581014581144	207.32474990852492	1874.9584305960982	1658.3194033702744	-181.65563364715513	1615.3652461015217	1974.2102928547547	-251.65034609106996	1488.3343746437374	1865.454801744772	30.034921761248853	1303.2404399033387	1740.3855019655266	-48.48302090935609	1417.8096620639476	1732.1804981528355	-109.13356358699659	1546.82141194901	1817.210571209348	-94.91123103930894	1323.833599722226	1805.4410505751985	34.09877861296752	1612.1823369888014	1741.381948501456	131.99961438800045	868.6925738189715	1787.0227606000337	245.2093827732626	841.7789776287783	1732.2468575799876	-10.211020960560903	766.468739118856	1912.1687244644231	-178.6012390333959	992.7786316671486	1950.5045558777613	-147.25091867185984	280.764186360837	2054.91161310013	-10.104612772614901	445.7308585642112	1972.3378724693364	302.233692501273	457.5316366301345	1758.196870794683	194.7660138759961	388.5398100150801	1800.5453534168996	244.92077363001465	51.402515172975576	1586.2930140845397	276.28601535424303	58.6397470934553	1593.4978800177594	230.4557862754564	79.96674139621965	1664.896986324379	273.00208993481783	93.13091543162523	1662.7257934712218	311.99044792857154	83.30879578585687	1664.4062529461971	-191.4170440024099	68.05532991961242	1896.767325035926	-164.48824860718082	107.33972722594442	2008.9914934658575	-203.14512971703752	69.08454689572415	1911.0381033319904	-176.73540818899963	66.78981462594982	1879.891832041496	-158.5251847102399	87.34817401774576	1940.9390933902464	-114.65099661060216	100.67240362950167	1957.3449834366313	
420	14.0	-58.81198507359998	2066.4837153409057	1948.8895710442662	-52.42806355577343	1883.3732671276737	1751.997202625254	1.8264861950303517	1670.186935093309	1908.6835931913745	155.17818238609618	1738.476629637235	1794.1716858440222	162.37043277902922	1933.676949265459	1551.31962861442	119.09822103790255	2151.228805498819	1366.1805999923008	-108.33690429857256	1632.2723264821461	2007.6648509343129	-296.55974328583534	1434.4682700563335	1853.8111686853576	-250.03292156644625	1615.5186959060925	1619.0551491679973	103.66160391339925	1132.2120607492573	1777.7012425771477	187.78721282946947	650.6014471074434	1780.2077438615863	292.42145319330984	165.52423011770168	1792.6356309255248	-64.13522809942563	1114.7652184327947	1881.4703568279542	-61.14091200653446	634.3949807003709	1969.6052162534295	-68.57878852700578	159.8066105174171	2053.4623975651402	301.86743604436424	103.4326292311315	1806.3093410479096	-66.55442965812942	90.17367848771634	2082.6183418138457	210.21490284162397	55.36797775559607	1576.1383686456322	303.21019262816714	66.40759469830267	1611.140296419284	-151.71698800570906	80.56142015342428	1848.9373555317936	-209.13474341762912	70.42671454433686	1939.4433789596485	-131.25176369040065	1170.3877276322992	1866.2845221895284	116.55853151072147	1193.2080998450579	1717.3152312568793	103.274022643237	1216.291498627505	1885.866270488762	16.563638516287604	1206.7181957207035	1932.6060119720019	139.43230629295667	2203.413520736999	1318.7995041120553	87.476284590865	2216.4229320121744	1318.191818410761	-253.93272913273867	1638.5365682616232	1546.4632360238973	-226.52330925462036	1680.7643690349246	1564.3876291099352	-117.75318837929831	631.4986978367996	1998.4241303617507	154.3367996192879	2150.9917767643115	1375.0995716133075	-126.69614986899563	147.76752207480743	2087.294324101601	248.5993235762067	143.74854734132637	1794.6363324227336	234.868692507059	646.7172021983046	1751.7730623046116	-39.109583338164484	1504.1931278463296	1782.6830811508464	-41.46372742053936	140.04428601416157	2025.673547293374	139.63223995867853	635.5300525414623	1797.5085301556587	-261.3479736507233	1411.0308063706696	1862.0618676993295	-41.68126520234558	1271.206438187423	1725.1240239201766	153.21850135880175	1964.9056992660205	1586.1280520495015	84.59792652451885	2130.875373094939	1364.6496044191815	-283.84597505195137	1592.4275786056182	1610.897662360234	-324.7243655633788	1469.3612381062562	1870.0647589283358	-28.797119893365142	623.3058527481899	1917.2014024723849	171.40254511810522	1896.0406323336833	1530.5503006430683	350.0219249617166	153.41521100440525	1765.7203906940224	-231.5390430337361	1634.1726295037322	1649.467418533516	-29.612531405697002	1787.2133672421446	1754.4348371953035	60.28750436821691	1484.020954702477	1971.2388614487913	-19.41540188181056	1930.6162938781433	1754.7226265399272	-103.37071730091382	1911.056340619217	1768.5833711483003	-139.95228817706186	1866.5413162795269	1901.6491956165237	69.65828088861265	1910.6886493270088	1869.5283970949886	24.522409146054983	1725.6329946341734	1967.438024810022	54.22767714764342	1591.1635994626522	1992.9733380090893	69.9608629986686	1325.5399623554715	1918.6593044217304	53.87231031984803	1475.8129339636819	1956.9237818668644	104.096504309119	1841.003219306725	1677.5204000728497	204.68834028162934	1866.4346677469634	1659.7046856873449	-174.08093515987628	1611.039647825921	1986.633746253701	-216.76796543908523	1451.1101154653895	1912.713376632821	27.30593484474595	1300.9944683066444	1742.8785965531656	-50.527987926017055	1416.061521276933	1735.1358669230315	-110.37229567126778	1545.1136180238543	1820.6744454429547	-97.48952459115917	1322.0904689928122	1808.0621511902254	33.219354434656445	1609.9005922392264	1745.0330520938417	128.26977774515035	866.9767461795552	1786.3332168417705	242.3906674952524	840.8626527777185	1733.0822119889021	-13.423189642656826	765.7038253556692	1911.6884077057896	-183.247343291862	990.9303980403201	1950.0787290387166	-148.0792927292281	279.8485911054699	2056.016910085988	-11.63425816300412	444.9830237578576	1972.6208280663727	300.79694304130766	456.65702120303774	1758.1172634825534	193.6678176831762	387.28576151568114	1800.7030228227693	242.57725711454404	52.46346362932046	1586.0814611056742	274.06159902515157	59.379171857661156	1593.0796895645185	229.00526202212907	80.55527601865701	1665.0142575636446	271.64341462326126	93.3732863272329	1662.5885481815362	310.558747288639	83.20765291212473	1663.8718323451362	-191.06150605171817	69.2016979554701	1896.3477793658967	-164.88729896554497	106.7608424763222	2009.3385286298137	-202.8598809960395	69.91702301220404	1910.5797523150493	-176.29646848937037	68.31247864085061	1879.5210988342487	-158.4916739581465	87.95483612835255	1940.9881109809717	-114.77719014653748	101.27640063325782	1957.817030393384	
421	14.033333333333333	-59.88376163663325	2063.892480714699	1951.201763617322	-51.96864180254525	1882.4798397211853	1752.7991426512287	2.806214269066746	1667.0287398706457	1910.9174988605903	160.32301565992938	1734.1721316524643	1799.4689430416606	162.2043582645231	1923.4810442596145	1551.899536396114	152.49694650686718	2146.891659759736	1368.9481291385703	-122.22450268709089	1627.5590532363842	1994.6108076138594	-282.66517412741314	1375.3577233314227	1900.3849219006381	-267.08329825691345	1523.6720399764013	1639.9728270167568	94.12334945210102	1130.459630734625	1773.3111358203078	185.36304801467705	650.3045379955834	1781.9613386175347	292.1454548662889	165.6732454592913	1793.4813628138868	-73.44989368308491	1114.448155792421	1877.671277004975	-62.25135419098453	634.7576182546346	1968.5068031128185	-69.76722417821503	160.3934115913546	2053.6160335913232	301.85037881381675	103.48367535109357	1806.8006460726829	-67.5613210420972	90.65071692200016	2082.8269058707483	207.2774757670321	57.055275198937366	1577.4767620806992	300.7977908005201	65.06966391442931	1611.8984451039175	-152.88261586239793	82.00619008008154	1849.1660212318995	-209.87174390708614	69.28325935223239	1939.616104092281	-138.25695266903975	1173.5879618087324	1866.1982258417838	109.13123867701327	1194.0619943083725	1716.1900320245636	98.15401558482903	1208.45697099924	1885.8693163246842	11.481828699682083	1200.0021409756691	1932.894736553825	177.69116507963614	2190.342273453571	1315.4786678115713	134.1435650474933	2219.8803745322734	1325.4861335672617	-275.36336307093705	1534.6166351605702	1564.9643397391133	-254.41155350354882	1582.6411169320274	1575.4723438380054	-117.94943131048527	631.3493446222758	1999.0587991572459	186.7535360934451	2134.7760668637675	1369.9777584455035	-126.9544540895599	148.73350623096377	2089.1242570769696	248.40148079774804	143.67332614166872	1794.4964951921402	233.82353871612816	646.9617557558984	1755.8042708945256	-39.86801920808187	1501.5686478921289	1784.791757525811	-43.5624670905012	140.4292360076954	2025.107462823136	136.60325291663992	634.4514126735088	1796.7746818764215	-243.63917717807146	1359.8461761721207	1910.0607126128698	-45.14942742628885	1268.6409505480115	1727.178818768013	172.03341722240017	1955.2338696396032	1586.0428622116317	113.8114881315494	2139.190268306911	1376.089582741048	-297.1262402112999	1494.8869152197028	1636.5224492572338	-315.35921077742677	1408.1839026092707	1911.7201009774062	-31.488216174220533	623.639487075503	1915.1394764080783	153.98554358495383	1885.344081111227	1531.7139099020533	350.3176592973275	154.00983882203002	1767.619568100526	-251.2214078722519	1549.2296643120262	1666.6206633558045	-29.013869975161718	1786.3383081543307	1754.5601860679226	58.85550357095964	1480.153120523737	1973.564163176775	-19.04994671010213	1929.749269659945	1756.1349858033022	-103.05898586082117	1909.9408722206226	1769.2999290834628	-140.40344015263227	1864.2344665468565	1901.7485175061784	69.33321527536168	1908.9810473293146	1871.3248054535668	26.04489151649058	1722.1836109997264	1969.7338039346325	54.05289481945391	1587.3577191419795	1995.3073066427041	66.71471337255663	1321.57552137498	1920.9734178962842	52.37271510329425	1472.0264396057962	1959.2331362245604	113.68195605295243	1849.8934398915903	1693.8197486545412	209.1233264781033	1844.219447163011	1649.7558594589655	-184.52021957739927	1592.5857843203635	1984.0502337966993	-203.7469680924167	1416.0477860349656	1947.601280136422	24.155787013325803	1297.5831526037546	1745.0931021682695	-52.25318781747975	1413.5912511164554	1737.2009719076564	-110.71144780447509	1543.3473948236306	1822.6328644831458	-100.51838120902474	1320.1861305837617	1810.0030467098602	33.82698514264264	1606.3939219451765	1747.3247559222189	122.29734273542172	865.6611905362684	1784.167353620089	239.31839577141812	841.1422303663079	1736.774457444339	-17.8963302159778	766.1620138397942	1908.3186666181336	-188.95999005319197	989.7296242948578	1950.695745522884	-148.53323222466668	280.85952724455166	2058.1727607047324	-13.6697821227708	445.0931328176855	1970.533115403715	299.74328441208263	457.05037897783546	1760.89904222481	192.15275917401522	386.8992054040435	1800.9697272003407	239.5735099708438	53.08664542909236	1587.2665228806773	271.3197296416447	58.94215363698143	1594.0456502320667	227.438249807678	82.18897248682042	1666.0670644484796	270.4851637926331	93.48569555899438	1663.320292576421	309.02688261818975	81.97007029329423	1664.467603407725	-191.85142347088419	69.06555519623564	1896.4815015654278	-166.4029820268695	105.77579796104538	2009.9161645973634	-203.63818130647425	69.3050187012637	1910.7390396503818	-177.0993013779122	68.75898973087588	1879.6228202916548	-159.67103343548334	88.02737227871799	1941.31570001637	-116.26617698817105	102.19673907671171	1958.2532377859334	
422	14.066666666666666	-61.06950303007534	2062.95436090809	1950.744749345586	-49.05358896723909	1880.0767086490455	1753.8991815674437	4.822188138685844	1664.769979508248	1912.1929228063807	178.06046042887706	1727.3944356066138	1802.4914218957827	164.04448674521393	1922.0724715282613	1559.5181110966043	190.84819293787746	2143.145551793435	1375.4365832479452	-141.32288110498354	1608.9138099110703	1983.698696928827	-285.94096330561507	1335.4665941923342	1933.325411223247	-289.9313230807179	1428.372291329413	1648.006293378577	83.40532015771277	1128.4433313410902	1768.7913161120475	181.55531719299134	649.879852308898	1783.6887973763496	291.9001711110958	166.05496612506937	1795.528383471409	-82.06328006064271	1114.432604743243	1876.735931979311	-64.475856204398	634.8518929629572	1967.0585404769856	-71.39687896127914	160.65955858191867	2053.17009275571	301.97492302549534	103.83364642698731	1808.6983475320012	-69.01727499930057	91.1308619821438	2082.615169940024	207.34822110221486	58.31902667864668	1579.2135315357343	300.882368972398	64.81421197738871	1613.9166691853832	-154.58477712418667	80.47437234384819	1849.1274785876972	-211.39925629437812	68.09350784241427	1939.7347648392256	-145.47822619369447	1175.5456835619498	1868.2013753247527	98.81100762434602	1192.970830233161	1712.8253928156985	92.1926517037801	1203.5857978627685	1883.0085122150047	6.4421275825585145	1196.3324425163764	1931.8877381403745	204.79780335682173	2174.53050463508	1310.6131239237914	197.8761014869183	2220.7062102412674	1336.8607239996327	-301.5416792844067	1423.2827219303797	1572.8137890120775	-283.72137598395454	1473.6618131262098	1572.4514573000158	-120.02392188925371	630.6964122728989	1997.8056908110777	207.0293896754321	2114.1946284524656	1360.5579217597726	-128.5044782112643	149.02214849938017	2088.813596897795	248.31895430774148	143.71148055997352	1795.6200665005622	231.1048528843157	647.0995177451376	1759.5279768584599	-39.47304749126926	1500.6811231903291	1784.8405997007012	-45.229452396006316	140.6596286808221	2024.652294823396	132.4398078783787	633.2544996421088	1796.4114636608476	-245.9362531553194	1324.1450574935404	1944.6701647084874	-48.49350774280533	1268.1385773465827	1726.1460356894627	205.50377234039874	1936.1127485649565	1578.3493955993629	164.7554980782291	2156.912723060983	1402.5753516397808	-317.94460775857925	1397.6551202491953	1651.8505303122813	-320.58974410757514	1367.583701189306	1939.8750516896407	-33.79043309939817	624.1551349847977	1913.5534892999005	126.94027970645533	1899.5388034965151	1552.8137830216754	350.64982784530224	154.94163680105362	1770.7524961311428	-275.0278059623493	1459.7636948960958	1668.1895505345663	-25.630728106232063	1784.074814638052	1756.7667329568903	56.5464347386503	1476.5994187223735	1974.6834569269836	-16.438153033077267	1927.5445625822592	1757.3925359238567	-100.54217886600107	1907.390946939009	1769.373838645601	-139.75330211518	1862.4993296770954	1901.5613678391123	70.206025387917	1908.1266450567614	1874.128681813241	28.397106897508856	1719.2258853537558	1971.524459075875	53.5239847602711	1583.7846808282693	1996.838359023743	62.01803212408807	1318.1210743715587	1921.494316930898	50.08304070738669	1468.6576921701903	1960.2404191741218	160.84207482120547	1865.4791564038783	1716.6735975473948	198.31390014013073	1814.5578608641215	1632.4966429756387	-201.3240585272922	1568.906380077192	1979.867787517034	-209.46422764570494	1387.9695357118164	1972.157086003719	21.129475611005684	1295.6779288912378	1745.0142540345003	-52.95703240970988	1413.1550650351414	1736.7192020153211	-109.9586016293958	1543.6464126308715	1822.0155241437558	-103.8638671216657	1320.3857826626174	1808.5282680032067	36.64935989627355	1604.2358982342046	1748.717814441938	115.1436772086457	864.1605472708355	1782.1004118630826	234.42807448759987	841.2611630440103	1739.8151468500328	-22.01808158279825	766.8438357113464	1906.8244574148819	-195.7187121050975	988.2009744242863	1950.070001404577	-150.26295438866896	281.0638504463016	2057.6289551046693	-15.718699718173912	445.2359201689473	1969.3854858869977	297.8350345095363	457.6022322909968	1764.1446686837119	190.0467137495665	386.4661263775324	1801.8792736558848	239.53838580824464	53.820039904991454	1589.121895592117	271.35978971032193	59.143498775651246	1595.9866641067144	227.657817635826	83.3838303138776	1667.789358544354	270.9037506580616	93.92000482947455	1665.1481816991127	309.23497905184047	81.73847770061991	1666.4586640778066	-193.43151949670602	67.66840923478055	1896.5797766638605	-168.02159086281304	105.27665190103909	2009.7285437067485	-205.20163824970382	67.9480923747064	1910.8503224547742	-178.69896844084536	67.31824675900408	1879.7048381884706	-161.2882994584378	87.092473116859	1941.2424289419657	-117.93197624336258	101.58803247780298	1958.0275622582826	
